<?xml version="1.0" standalone="no"?>
<!DOCTYPE svg PUBLIC "-//W3C//DTD SVG 20010904//EN"
 "http://www.w3.org/TR/2001/REC-SVG-20010904/DTD/svg10.dtd">
<svg version="1.0" xmlns="http://www.w3.org/2000/svg"
 width="1080.000000pt" height="1080.000000pt" viewBox="0 0 1080.000000 1080.000000"
 preserveAspectRatio="xMidYMid meet">

<g transform="translate(0.000000,1080.000000) scale(0.100000,-0.100000)"
fill="#000000" stroke="none">
<path d="M10740 9283 c0 -12 5 -25 10 -28 13 -8 13 15 0 35 -8 12 -10 11 -10
-7z"/>
<path d="M10723 9245 c0 -22 2 -30 4 -17 2 12 2 30 0 40 -3 9 -5 -1 -4 -23z"/>
<path d="M10726 9178 c-3 -13 -5 -45 -5 -73 l1 -50 13 65 c7 36 10 69 5 73 -4
5 -10 -2 -14 -15z"/>
<path d="M10613 9063 c-20 -8 -15 -23 7 -23 11 0 20 7 20 15 0 15 -6 17 -27 8z"/>
<path d="M10656 9024 c-3 -8 -10 -12 -16 -9 -10 6 -72 -31 -78 -47 -2 -4 -21
-8 -43 -8 -21 0 -39 -3 -39 -8 0 -4 -18 -18 -40 -32 -22 -14 -40 -28 -40 -32
0 -5 -7 -8 -16 -8 -8 0 -22 -7 -31 -16 -9 -8 -22 -13 -30 -10 -18 7 -83 -35
-83 -54 0 -8 -18 -26 -40 -40 -22 -14 -40 -28 -40 -32 0 -5 -7 -8 -16 -8 -8 0
-21 -6 -28 -12 -8 -7 -24 -20 -36 -28 -12 -8 -28 -21 -36 -27 -7 -7 -20 -13
-28 -13 -9 0 -16 -3 -16 -8 0 -4 -18 -18 -40 -32 -22 -14 -40 -32 -40 -40 0
-8 -18 -26 -40 -40 -22 -14 -40 -28 -40 -32 0 -5 -18 -8 -40 -8 -36 0 -40 -3
-40 -24 0 -16 -7 -27 -20 -31 -11 -3 -20 -11 -20 -16 0 -5 -27 -9 -60 -9 l-60
0 0 -40 c0 -30 -4 -40 -16 -40 -8 0 -22 -7 -31 -16 -9 -8 -22 -13 -30 -10 -14
6 -74 -29 -81 -46 -2 -4 -30 -8 -63 -8 -32 0 -59 -4 -59 -9 0 -5 -9 -13 -20
-16 -14 -5 -20 -15 -20 -38 0 -25 -7 -37 -35 -54 -19 -13 -41 -20 -48 -17 -8
3 -21 -2 -30 -10 -10 -11 -34 -16 -71 -16 -49 0 -56 -3 -56 -19 0 -11 6 -21
12 -23 9 -3 8 -9 -4 -21 -26 -26 -69 -21 -106 13 -18 17 -39 27 -47 24 -17 -7
-19 -20 -5 -29 6 -4 9 -14 8 -22 -2 -9 3 -18 11 -21 8 -3 11 0 7 7 -10 16 12
13 47 -6 51 -29 59 -39 43 -56 -12 -11 -11 -15 8 -27 11 -8 26 -13 32 -12 7 1
14 -4 18 -13 3 -8 12 -15 20 -15 15 0 16 -16 2 -38 -4 -7 -5 -16 -2 -19 3 -4
6 -2 6 4 0 6 7 13 14 16 11 4 13 1 9 -11 -4 -9 -11 -21 -17 -25 -7 -5 -6 -7 4
-6 34 3 50 -2 50 -16 0 -8 7 -15 15 -15 17 0 20 -16 5 -23 -6 -3 -5 -4 2 -3
22 5 48 -14 48 -35 0 -11 9 -37 19 -58 14 -27 17 -41 9 -49 -7 -7 -7 -19 0
-39 8 -22 11 -23 11 -8 1 17 3 18 12 5 9 -12 10 -12 5 3 -3 10 -6 22 -6 25 0
4 -5 0 -10 -8 -8 -13 -10 -13 -10 1 0 9 7 22 16 29 8 8 14 9 13 4 -2 -10 4
-29 28 -81 15 -36 28 -44 20 -13 -3 11 -1 20 4 20 5 0 10 -11 11 -25 0 -14 1
-31 2 -37 0 -7 10 -22 22 -34 21 -20 37 -61 39 -101 0 -13 6 -28 13 -35 7 -7
12 -21 12 -32 0 -12 7 -34 15 -50 8 -15 15 -36 15 -46 0 -10 9 -42 19 -72 11
-29 22 -70 26 -90 3 -21 10 -38 16 -38 6 0 7 -5 4 -10 -4 -6 -11 -8 -16 -5 -5
4 -9 1 -9 -4 0 -6 5 -11 11 -11 7 0 9 -10 7 -25 -3 -14 -1 -28 3 -31 5 -3 9
-14 9 -25 0 -11 -4 -18 -8 -15 -4 2 -8 -24 -7 -60 0 -35 3 -64 8 -64 13 0 8
-60 -5 -60 -9 0 -8 -4 2 -10 11 -7 12 -12 3 -18 -10 -6 -20 -117 -22 -245 -1
-16 -5 -26 -9 -23 -4 2 -9 -26 -10 -62 -1 -47 -6 -70 -17 -78 -10 -7 -13 -18
-8 -29 4 -13 3 -16 -5 -11 -8 5 -10 -1 -6 -21 6 -31 -20 -103 -38 -103 -6 0
-3 -9 7 -20 10 -11 15 -23 12 -27 -4 -3 -7 0 -7 7 0 25 -20 -4 -24 -35 -7 -56
-28 -84 -39 -52 -2 6 -3 -11 -2 -40 1 -29 -2 -50 -7 -47 -4 3 -8 -7 -8 -21 0
-20 -4 -26 -14 -22 -10 4 -13 1 -9 -9 3 -8 -2 -26 -12 -40 -9 -14 -15 -27 -13
-29 5 -5 88 103 88 115 0 6 4 10 10 10 5 0 24 22 42 50 18 27 34 47 36 45 3
-3 0 -10 -5 -17 -12 -16 -27 -67 -25 -88 1 -11 0 -11 -4 -2 -8 18 -34 -4 -34
-29 0 -10 -11 -39 -24 -65 -13 -26 -22 -54 -18 -62 3 -8 -2 -19 -12 -24 -9 -5
-14 -13 -11 -19 4 -5 1 -9 -5 -9 -6 0 -8 -4 -5 -10 3 -5 1 -10 -5 -10 -6 0 -9
-4 -6 -9 3 -4 -10 -24 -29 -44 -19 -20 -35 -43 -35 -52 0 -9 -7 -27 -16 -40
-14 -22 -21 -41 -23 -70 -1 -5 -6 -3 -11 5 -8 13 -10 12 -11 -5 -1 -11 -1 -23
0 -27 0 -5 -4 -8 -10 -8 -5 0 -7 -5 -4 -10 4 -6 1 -9 -5 -8 -7 2 -23 -16 -36
-39 -13 -23 -35 -53 -49 -67 -14 -14 -25 -30 -25 -36 0 -6 -4 -9 -9 -6 -8 5
-36 -42 -33 -56 1 -5 -1 -7 -6 -7 -19 3 -32 -2 -32 -13 0 -15 -63 -88 -75 -88
-14 0 -65 -53 -65 -67 0 -7 -6 -13 -13 -13 -7 0 -37 -23 -65 -50 -29 -28 -52
-47 -52 -44 0 4 -7 1 -15 -6 -8 -7 -12 -17 -8 -23 4 -6 0 -8 -9 -5 -8 4 -21
-2 -29 -13 -7 -10 -19 -19 -26 -19 -6 0 -27 -13 -45 -30 -36 -34 -70 -42 -38
-10 11 11 20 25 20 30 0 6 18 30 41 55 39 42 40 44 20 55 -16 8 -21 8 -21 -1
0 -6 -10 -24 -23 -39 -20 -23 -26 -25 -40 -15 -21 15 -22 29 -2 21 10 -4 15 1
15 14 0 11 3 19 8 18 4 -1 17 3 28 10 12 6 25 8 29 4 5 -4 5 1 1 12 -5 14 -2
17 9 12 9 -3 14 -2 11 3 -7 11 22 23 35 15 5 -3 19 2 31 10 12 9 17 16 11 16
-7 0 -15 -4 -18 -10 -3 -6 -10 -10 -16 -10 -5 0 -4 9 3 19 6 11 18 17 26 13
10 -3 13 -1 8 6 -3 6 -2 13 4 17 5 3 10 1 10 -5 0 -6 4 -9 10 -5 5 3 7 12 3
20 -3 9 1 15 11 15 9 0 15 6 13 13 -1 6 4 11 11 10 6 -2 12 4 12 13 0 8 5 12
10 9 6 -3 10 -2 10 2 0 8 68 90 116 139 11 12 30 39 42 60 21 36 21 37 2 14
-12 -14 -31 -38 -43 -54 -33 -44 -198 -204 -274 -266 -37 -30 -100 -76 -139
-102 -58 -39 -71 -52 -67 -68 3 -11 10 -20 15 -20 6 0 5 -7 -2 -15 -15 -18
-66 -20 -76 -3 -4 6 -3 8 3 5 6 -4 13 0 17 8 3 8 12 15 21 15 8 0 15 5 15 10
0 6 -3 10 -6 10 -8 0 -168 -84 -174 -92 -6 -8 -196 -84 -232 -93 -30 -8 -36
-19 -16 -31 6 -4 14 -2 16 4 2 7 8 10 12 7 5 -3 35 8 66 25 31 16 65 30 75 30
22 0 25 -22 6 -38 -19 -16 -69 -34 -62 -22 13 21 -22 9 -45 -15 -13 -14 -39
-28 -59 -31 -31 -6 -56 -16 -131 -53 -8 -4 -29 -4 -46 -1 -20 5 -38 2 -50 -7
-11 -8 -30 -11 -47 -7 -19 4 -27 2 -25 -6 2 -7 -7 -14 -19 -16 -13 -2 -23 1
-23 7 0 5 -5 7 -11 4 -14 -10 -64 4 -53 15 14 13 158 39 185 34 20 -5 21 -4 9
6 -12 10 -11 11 8 7 12 -3 20 -1 16 4 -3 5 8 9 23 9 16 0 34 5 39 10 6 6 27
11 48 12 25 1 33 4 24 11 -8 6 -4 6 12 2 38 -11 80 -9 93 4 9 9 4 9 -21 0 -25
-8 -36 -8 -47 1 -12 10 -34 7 -107 -11 -51 -12 -98 -26 -103 -30 -6 -4 -67
-17 -135 -29 -69 -12 -147 -27 -175 -33 -36 -9 -304 -12 -940 -11 -489 0 -795
-3 -680 -6 116 -3 521 -6 900 -7 622 -1 697 1 760 16 64 16 71 16 82 2 10 -13
8 -17 -12 -19 -16 -2 -22 -8 -18 -18 4 -10 -2 -14 -20 -14 -14 0 -29 -4 -32
-10 -3 -5 -12 -10 -18 -9 -9 0 -9 2 1 6 6 2 12 9 12 14 0 6 -5 7 -11 4 -5 -4
-36 -8 -67 -10 -59 -3 -127 -12 -151 -21 -8 -3 -122 -5 -253 -4 -148 0 -238
-4 -238 -10 0 -6 -9 -6 -22 -1 -36 12 -436 3 -444 -11 -4 -5 -10 -5 -17 1 -12
9 -363 7 -467 -4 -30 -3 -65 -5 -78 -5 -14 0 -26 -8 -31 -23 -5 -12 -23 -38
-40 -56 -33 -35 -39 -52 -18 -47 6 1 9 1 5 -1 -5 -3 -8 -13 -8 -23 0 -9 -7
-23 -15 -30 -8 -6 -14 -15 -13 -18 4 -14 -13 -82 -20 -82 -4 0 -8 -9 -9 -21
-1 -11 -11 -47 -22 -80 -12 -32 -21 -66 -21 -75 0 -8 -7 -23 -16 -32 -11 -10
-13 -17 -5 -20 7 -2 6 -9 -5 -19 -10 -10 -13 -25 -9 -44 4 -18 2 -29 -4 -29
-6 0 -11 -15 -11 -32 0 -18 -5 -40 -10 -48 -6 -10 -10 -11 -10 -2 0 6 -4 12
-10 12 -5 0 -10 -9 -10 -20 0 -11 5 -20 10 -20 6 0 10 -5 10 -11 0 -6 -7 -9
-15 -5 -12 4 -14 0 -9 -18 3 -13 1 -27 -5 -30 -6 -4 -11 -20 -11 -37 0 -16 -5
-29 -10 -29 -6 0 -8 -11 -4 -25 5 -19 2 -25 -10 -25 -9 0 -16 -6 -15 -13 5
-38 -2 -78 -13 -71 -8 5 -9 0 -6 -14 4 -12 2 -22 -4 -22 -6 0 -7 -7 -4 -16 3
-9 -1 -25 -9 -37 -8 -12 -15 -31 -15 -42 0 -11 -7 -33 -15 -49 -8 -15 -12 -32
-9 -37 3 -5 0 -9 -7 -9 -6 0 -9 -8 -6 -20 3 -12 0 -20 -8 -20 -8 0 -11 -8 -8
-23 4 -17 2 -19 -5 -7 -6 8 -8 28 -5 45 10 53 -8 19 -22 -41 -9 -41 -21 -64
-36 -74 -13 -8 -35 -25 -49 -37 -21 -19 -22 -22 -7 -23 11 0 15 4 11 12 -5 7
0 9 14 6 16 -4 19 -2 15 10 -5 11 -2 14 11 9 9 -4 15 -3 11 2 -3 5 -1 12 5 16
5 3 10 1 10 -6 0 -10 3 -10 12 -1 7 7 17 12 23 12 5 -1 -1 -10 -15 -21 -14
-12 -25 -26 -25 -33 -1 -6 -6 -10 -13 -8 -7 1 -12 -2 -12 -7 0 -9 -45 -5 -62
5 -9 6 -138 -76 -138 -88 0 -4 -6 -8 -13 -8 -7 0 -28 -13 -47 -30 -19 -16 -27
-27 -17 -24 9 3 17 10 17 16 0 5 5 6 10 3 6 -4 8 -11 5 -16 -3 -5 1 -6 9 -3
21 8 21 -19 1 -36 -8 -7 -15 -9 -15 -5 0 5 -9 0 -20 -10 -11 -10 -20 -15 -20
-11 0 4 -10 -2 -22 -14 -20 -18 -26 -21 -44 -19 -7 0 -49 -54 -47 -62 1 -3 -9
-4 -22 -1 -18 3 -31 -4 -50 -26 -14 -17 -35 -34 -46 -37 -10 -4 -16 -11 -13
-17 4 -7 2 -8 -4 -4 -7 4 -27 -8 -46 -28 -19 -19 -37 -29 -39 -23 -2 6 -9 7
-16 3 -11 -7 -11 -10 0 -17 11 -7 11 -9 -2 -9 -9 0 -29 -12 -45 -27 -16 -15
-35 -27 -42 -28 -7 0 -17 -7 -22 -15 -8 -13 -10 -12 -10 3 0 9 -5 17 -11 17
-5 0 -7 -5 -4 -10 10 -16 -37 -60 -65 -60 -14 0 -32 -5 -40 -11 -12 -8 -10 -9
8 -4 13 4 22 2 22 -5 0 -6 -3 -9 -8 -6 -4 2 -16 -2 -27 -10 -10 -8 -15 -14 -9
-15 5 0 0 -4 -11 -8 -11 -5 -25 -4 -33 2 -9 7 -11 6 -6 -7 3 -9 1 -16 -4 -16
-14 0 -61 -47 -56 -54 2 -4 -2 -2 -8 4 -9 7 -23 -1 -50 -32 l-37 -42 4 29 c2
17 4 35 4 40 1 6 6 3 12 -5 8 -12 9 -10 4 8 -7 23 10 32 18 10 2 -7 8 -9 13
-5 5 4 2 12 -5 16 -9 6 -10 11 -2 15 6 4 11 3 11 -2 0 -6 8 -13 17 -16 16 -6
15 -5 -1 12 -16 19 -16 20 10 26 15 4 35 16 44 26 10 11 21 16 25 12 5 -4 5
-1 0 7 -6 10 -2 12 16 7 13 -3 18 -3 12 0 -19 9 -16 24 5 24 10 0 29 11 41 24
14 15 29 22 39 19 10 -4 13 -2 8 5 -4 7 -3 12 3 12 5 0 12 -6 14 -12 3 -7 6
-3 6 8 1 14 12 26 31 34 16 7 27 16 24 21 -3 5 2 9 10 9 9 0 16 5 16 11 0 5 5
7 10 4 6 -4 8 -10 5 -14 -2 -5 8 -6 23 -3 22 5 23 7 7 10 -11 2 -24 9 -30 14
-7 7 -2 8 15 4 14 -3 19 -3 12 0 -9 4 -5 12 12 25 29 23 43 25 26 4 -8 -10 -9
-15 -2 -15 6 0 16 9 22 20 6 11 15 18 20 15 6 -3 7 1 4 9 -3 9 -1 16 6 16 6 0
18 7 27 16 9 8 22 13 29 10 8 -3 19 5 25 17 11 21 29 36 46 39 5 1 19 12 33
25 14 13 30 21 35 19 11 -4 36 19 34 31 0 4 5 9 12 12 7 2 9 -1 5 -8 -5 -7 -1
-9 9 -4 12 4 13 8 5 13 -9 6 -9 9 0 15 7 4 16 2 21 -6 6 -10 8 -7 6 8 -1 22
-2 22 -29 5 -48 -29 -203 -136 -208 -142 -3 -4 -34 -25 -70 -48 -36 -23 -74
-48 -85 -56 -73 -53 -93 -67 -120 -82 -16 -9 -39 -24 -50 -34 -11 -9 -65 -48
-120 -85 -55 -38 -122 -84 -150 -104 -27 -19 -84 -57 -125 -85 -41 -28 -87
-59 -101 -71 -14 -11 -36 -26 -47 -34 -20 -14 -21 -31 -1 -31 6 0 8 4 5 9 -11
17 22 20 44 4 l21 -15 -32 -23 c-18 -12 -41 -20 -51 -17 -20 5 -25 -14 -6 -20
9 -3 9 -6 0 -12 -7 -4 -12 -2 -12 3 0 6 -7 11 -16 11 -11 0 -14 -5 -10 -16 4
-12 2 -15 -9 -10 -10 3 -15 -1 -15 -13 0 -13 -14 -25 -44 -37 -24 -10 -42 -22
-40 -26 3 -5 1 -8 -4 -8 -5 0 -26 -11 -46 -25 -21 -14 -43 -22 -49 -18 -8 4
-7 1 1 -9 12 -15 9 -16 -28 -11 -29 4 -40 2 -40 -8 0 -10 -3 -10 -12 -1 -18
18 -32 15 -84 -21 -27 -19 -64 -42 -82 -51 -34 -18 -60 -13 -44 7 5 7 45 80
87 162 43 83 88 166 100 185 12 19 40 69 62 110 22 41 50 91 61 110 12 19 33
55 47 80 14 25 38 68 55 95 17 28 44 75 60 105 17 30 44 78 60 105 16 28 41
73 55 100 15 28 39 70 55 95 28 44 63 104 129 225 18 33 41 71 51 85 10 14 30
49 45 79 14 29 31 59 36 65 6 6 18 25 27 43 34 63 123 219 163 283 23 36 49
81 58 100 10 19 37 67 59 107 23 40 42 77 42 83 0 5 4 10 8 10 13 0 64 99 57
110 -4 6 -1 9 7 8 7 -2 25 21 41 51 15 30 31 57 35 60 4 4 17 26 30 51 28 56
67 121 81 137 6 7 11 15 11 17 0 3 18 35 40 71 22 36 40 67 40 70 0 3 13 26
29 52 15 27 55 93 87 148 32 55 69 115 81 134 13 18 21 37 18 41 -3 4 2 14 11
21 22 18 56 88 49 99 -4 6 1 7 11 3 14 -5 16 -3 11 11 -4 9 -3 15 1 12 5 -3
18 15 30 40 26 53 26 55 7 48 -8 -4 -15 -2 -15 4 0 5 10 9 21 8 15 -1 27 10
39 32 10 19 26 42 35 52 10 11 15 26 12 35 -4 8 -3 14 1 12 4 -1 7 1 7 4 0 3
12 20 28 38 15 18 27 38 27 45 0 7 9 21 20 31 10 9 27 37 36 61 9 23 23 45 31
48 9 4 13 13 9 23 -4 10 -4 14 0 11 8 -9 45 62 39 73 -3 4 0 11 6 15 8 5 10 2
5 -7 -4 -8 -1 -6 8 5 13 16 13 22 1 46 -14 27 -10 70 6 70 12 0 11 -7 -1 -29
-6 -12 -5 -24 3 -35 10 -14 12 -12 13 15 1 29 34 79 34 51 0 -7 -4 -12 -9 -12
-5 0 -11 -9 -14 -21 -5 -17 -3 -18 9 -8 17 14 51 74 37 66 -4 -3 -9 8 -10 25
0 21 2 26 8 17 7 -12 9 -11 9 2 0 8 -6 21 -12 29 -7 8 -3 6 10 -4 26 -23 26
-21 6 -40 -8 -9 -11 -16 -5 -16 13 0 41 41 35 52 -3 4 0 8 6 8 6 0 9 4 6 9 -4
5 -3 11 2 13 4 1 17 16 30 32 18 24 20 32 10 44 -7 9 -8 13 -2 9 18 -11 58 41
60 76 0 18 4 43 8 56 6 18 5 22 -5 16 -9 -6 -11 -3 -6 9 4 10 7 25 7 34 0 14
2 14 9 3 5 -8 7 -20 4 -28 -3 -7 2 -16 11 -19 9 -3 13 -10 10 -15 -3 -5 -10
-7 -15 -4 -5 4 -9 1 -9 -4 0 -16 16 -13 30 4 7 8 9 15 5 15 -5 0 0 9 10 20 10
11 16 23 12 26 -3 3 0 20 7 37 7 18 12 43 11 57 -1 18 4 26 16 26 9 0 15 -6
12 -12 -2 -7 0 -15 6 -19 6 -3 11 1 11 9 0 8 6 19 14 23 14 8 36 46 36 60 0 4
-7 -1 -16 -12 -14 -19 -15 -19 -12 5 2 17 -3 25 -17 28 -11 2 -23 8 -26 14 -7
10 -60 -7 -58 -19 1 -5 1 -15 0 -23 -1 -12 -5 -11 -16 4 -13 17 -12 21 3 32 9
8 12 14 5 14 -6 0 -15 -5 -18 -10 -4 -6 -12 -10 -18 -9 -34 4 -37 -2 -37 -67
0 -67 -13 -94 -43 -94 -9 0 -17 -4 -19 -8 -6 -16 -68 -53 -78 -47 -6 3 -7 -1
-4 -9 4 -11 0 -16 -11 -16 -11 0 -15 -5 -11 -15 4 -11 -3 -17 -24 -21 -16 -4
-32 -15 -35 -25 -4 -11 -11 -19 -17 -19 -5 0 -8 -6 -6 -12 6 -16 -7 -28 -57
-53 -22 -10 -48 -26 -59 -35 -10 -8 -21 -15 -25 -15 -3 0 -5 -3 -4 -6 1 -4 -5
-6 -15 -5 -11 1 -16 -5 -14 -16 2 -12 -4 -18 -18 -18 -15 0 -20 -6 -20 -25 0
-22 -3 -25 -24 -19 -13 3 -27 1 -30 -5 -4 -6 -2 -11 5 -11 7 0 9 -3 5 -7 -4
-5 -13 -8 -19 -8 -7 0 -13 -15 -15 -32 -4 -36 -22 -46 -22 -13 0 11 -5 20 -11
20 -7 0 -9 -10 -7 -24 4 -19 0 -26 -18 -30 -12 -3 -28 -19 -36 -36 -14 -32
-23 -37 -32 -17 -3 6 -3 1 0 -12 6 -21 3 -23 -18 -19 -22 4 -24 2 -20 -20 4
-21 2 -23 -15 -18 -14 4 -23 1 -27 -9 -3 -8 -12 -15 -21 -15 -9 0 -15 -9 -15
-25 0 -19 -5 -25 -22 -25 -17 0 -19 3 -9 9 7 5 11 15 9 22 -6 17 -53 -35 -53
-59 0 -8 -6 -17 -13 -20 -6 -2 -12 1 -12 7 0 6 -6 11 -13 11 -9 0 -14 -12 -14
-30 0 -37 -34 -73 -60 -63 -15 6 -16 4 -6 -9 11 -12 10 -18 -5 -31 -9 -8 -21
-16 -25 -15 -5 0 -11 -3 -15 -6 -3 -3 0 -6 8 -6 10 0 10 -3 0 -15 -7 -9 -19
-14 -25 -11 -7 2 -19 -3 -28 -12 -8 -10 -22 -21 -29 -27 -7 -5 -22 -17 -33
-25 -11 -9 -16 -10 -11 -2 4 6 5 12 1 12 -3 0 -10 -11 -15 -25 -8 -21 -14 -24
-36 -19 -18 5 -31 2 -38 -7 -11 -15 -30 -17 -179 -18 -53 0 -77 -3 -72 -10 3
-6 -1 -11 -9 -11 -9 0 -16 5 -16 10 0 6 -5 10 -11 10 -5 0 -7 -4 -4 -10 3 -5
0 -10 -7 -10 -7 0 -24 -3 -37 -7 -17 -4 -22 -3 -17 5 8 14 -81 16 -149 5 -30
-5 -35 -8 -20 -13 12 -4 -13 -10 -64 -14 -64 -6 -86 -5 -92 5 -6 11 -9 10 -14
-3 -9 -23 -33 -30 -57 -17 -14 8 -23 8 -31 0 -8 -8 -6 -11 6 -11 10 0 17 -8
17 -20 0 -17 -7 -20 -39 -20 -22 0 -41 5 -44 13 -4 10 -7 10 -18 0 -11 -11
-10 -13 4 -13 9 0 17 -4 17 -10 0 -5 -6 -10 -14 -10 -8 0 -23 -13 -33 -30 -9
-16 -21 -30 -25 -30 -4 0 -8 -8 -8 -19 0 -10 -6 -24 -14 -30 -8 -6 -16 -24
-19 -39 -12 -67 -36 -137 -51 -148 -9 -6 -16 -16 -16 -23 0 -6 -7 -22 -15 -35
-14 -21 -14 -24 1 -30 12 -4 13 -10 6 -19 -8 -9 -32 -111 -32 -135 0 -2 -7 -2
-15 2 -17 6 -45 -29 -45 -57 0 -11 -8 -36 -19 -56 -10 -20 -24 -56 -31 -81 -7
-25 -16 -55 -21 -68 -5 -13 -9 -31 -9 -42 0 -10 -4 -20 -9 -22 -6 -1 -12 -27
-14 -57 -2 -29 -9 -56 -14 -60 -6 -3 -10 -21 -11 -39 -1 -46 -12 -75 -34 -90
-13 -10 -18 -23 -16 -45 2 -22 -1 -31 -10 -29 -8 1 -11 -2 -8 -7 3 -5 -6 -16
-19 -25 -14 -9 -24 -20 -21 -24 6 -10 -46 -76 -64 -80 -8 -2 -17 -7 -20 -11
-3 -5 -24 -18 -47 -29 -22 -12 -43 -25 -45 -29 -1 -5 -21 -17 -43 -28 -22 -11
-47 -28 -57 -37 -9 -9 -32 -25 -50 -34 -18 -9 -39 -25 -46 -36 -7 -10 -17 -16
-22 -13 -5 3 -14 -1 -22 -8 -7 -7 -25 -18 -41 -24 -15 -7 -26 -18 -25 -24 2
-6 -6 -13 -16 -15 -10 -1 -22 -6 -25 -11 -13 -18 -81 -63 -95 -63 -8 0 -18 -5
-22 -12 -4 -7 -3 -8 4 -4 7 4 12 5 12 1 0 -3 -19 -14 -42 -24 -24 -10 -52 -28
-63 -38 -12 -11 -32 -26 -47 -34 -14 -8 -44 -24 -67 -37 -25 -14 -39 -27 -35
-34 4 -6 3 -8 -3 -5 -5 4 -19 -3 -31 -13 -12 -11 -25 -20 -29 -20 -4 0 -21
-12 -38 -26 -16 -14 -44 -32 -62 -41 -18 -8 -31 -18 -29 -22 2 -3 -8 -7 -22
-8 -15 0 -33 -10 -42 -20 -8 -11 -19 -19 -23 -20 -5 0 -29 -18 -53 -39 -25
-21 -53 -42 -64 -48 -10 -6 -40 -24 -65 -40 -43 -25 -61 -33 -89 -35 -5 -1 -6
-4 -3 -8 7 -6 -37 -33 -54 -33 -16 0 -45 36 -41 50 3 9 -1 11 -12 7 -17 -7
-22 8 -6 18 5 3 10 12 10 18 0 8 -3 8 -8 2 -9 -13 -49 -35 -63 -35 -8 0 -9 13
-5 43 4 23 8 50 9 59 1 9 5 14 9 12 4 -3 9 7 10 23 3 53 5 68 11 83 19 54 26
84 20 89 -12 9 -15 41 -4 41 5 0 11 -3 14 -7 2 -5 2 -3 1 4 -2 6 1 13 7 15 5
2 10 21 12 43 1 22 5 42 8 45 4 3 10 20 14 38 5 25 3 32 -9 32 -9 0 -16 7 -16
16 0 8 3 13 8 10 4 -2 8 14 8 36 2 41 22 67 36 45 5 -8 8 -6 8 6 0 14 -5 17
-22 13 -13 -3 -17 -3 -10 0 6 3 12 14 12 25 0 10 5 19 10 19 6 0 10 5 10 11 0
5 -4 8 -9 5 -5 -3 -11 1 -14 9 -4 9 -1 12 9 8 9 -3 14 1 14 13 1 11 7 36 14
57 8 20 10 37 6 37 -4 0 -11 -12 -14 -26 -4 -15 -10 -24 -13 -21 -3 3 2 27 10
52 9 25 13 53 10 62 -4 11 -2 14 5 9 8 -5 11 4 10 26 -1 19 4 42 9 53 6 11 13
37 17 58 4 20 11 37 16 37 6 0 10 9 10 19 0 11 6 21 13 24 6 2 0 4 -16 4 -20
0 -25 -3 -17 -12 14 -17 2 -25 -42 -25 -24 0 -38 -5 -38 -13 0 -7 -18 -23 -40
-37 -22 -14 -40 -28 -40 -32 0 -5 -18 -8 -40 -8 -22 0 -40 -3 -40 -8 0 -4 -18
-18 -40 -32 -22 -14 -40 -32 -40 -40 0 -8 -18 -26 -40 -40 -22 -14 -40 -28
-40 -32 0 -5 -7 -8 -16 -8 -8 0 -21 -6 -28 -13 -8 -6 -24 -19 -36 -27 -12 -8
-28 -21 -36 -28 -7 -6 -20 -12 -28 -12 -9 0 -16 -3 -16 -8 0 -4 -18 -18 -40
-32 -22 -14 -40 -32 -40 -40 0 -19 -65 -61 -83 -54 -8 3 -21 -2 -30 -10 -9 -9
-23 -16 -31 -16 -9 0 -16 -3 -16 -8 0 -4 -18 -18 -40 -32 -22 -14 -40 -28 -40
-32 0 -5 -18 -8 -40 -8 -22 0 -40 -3 -40 -8 0 -4 -18 -18 -40 -32 -22 -14 -40
-28 -40 -32 0 -5 -18 -8 -40 -8 -22 0 -40 -3 -40 -8 0 -4 -18 -18 -40 -32 -22
-14 -40 -28 -40 -32 0 -5 -18 -8 -40 -8 -22 0 -40 -3 -40 -8 0 -4 -18 -18 -40
-32 -22 -14 -40 -28 -40 -32 0 -5 -18 -8 -40 -8 -22 0 -40 -3 -40 -8 0 -4 -18
-18 -40 -32 -22 -14 -40 -28 -40 -32 0 -5 -18 -8 -40 -8 -22 0 -40 -3 -40 -8
0 -4 -18 -18 -40 -32 -22 -14 -40 -28 -40 -32 0 -5 -9 -8 -20 -8 -11 0 -20 -4
-20 -9 0 -5 -9 -13 -20 -16 -20 -6 -20 -15 -20 -1036 0 -973 1 -1029 18 -1029
16 0 274 13 502 25 58 3 150 10 205 16 55 5 156 14 225 20 69 5 138 14 154 19
35 12 96 13 96 2 0 -4 -15 -17 -33 -27 l-32 -20 70 -6 c79 -6 80 -11 3 -14
-29 -1 -62 4 -74 11 -13 8 -26 9 -35 3 -11 -7 -11 -9 4 -9 30 0 19 -24 -23
-50 -22 -14 -40 -28 -40 -32 0 -5 -7 -8 -16 -8 -8 0 -21 -6 -28 -12 -8 -7 -24
-20 -36 -28 -12 -8 -28 -21 -36 -27 -7 -7 -20 -13 -28 -13 -9 0 -16 -3 -16 -8
0 -4 -18 -18 -40 -32 -22 -14 -40 -32 -40 -40 0 -8 -18 -26 -40 -40 -22 -14
-40 -28 -40 -32 0 -5 -18 -8 -40 -8 -22 0 -40 -3 -40 -8 0 -4 -18 -18 -40 -32
-22 -14 -40 -32 -40 -40 0 -9 -12 -23 -27 -32 -50 -29 -73 -54 -62 -65 8 -8 7
-13 0 -17 -6 -4 -11 -2 -11 3 0 6 -11 10 -25 9 -18 -2 -26 -10 -30 -30 -6 -25
-11 -28 -46 -28 -21 0 -39 -3 -39 -8 0 -4 -18 -18 -40 -32 -22 -14 -40 -32
-40 -40 0 -8 -18 -26 -40 -40 -22 -14 -40 -28 -40 -32 0 -5 -18 -8 -40 -8 -36
0 -40 -3 -40 -24 0 -16 -7 -27 -20 -31 -11 -3 -20 -11 -20 -16 0 -5 -9 -9 -20
-9 -17 0 -20 -7 -20 -40 l0 -40 5400 0 5400 0 0 3950 c0 2173 -3 3950 -6 3950
-9 0 -68 -43 -72 -52 -2 -4 -12 -8 -22 -8 -10 0 -21 -7 -24 -16 -3 -8 -10 -13
-15 -10 -5 4 -12 -7 -16 -24 -6 -27 -10 -30 -46 -30 -21 0 -39 -3 -39 -8 0 -4
-18 -18 -40 -32 -22 -14 -40 -32 -40 -40 0 -17 -61 -60 -85 -60 -8 0 -15 8
-16 18 0 11 -2 12 -6 4 -3 -7 1 -19 7 -27 11 -13 7 -15 -26 -15 -22 0 -34 4
-28 8 5 4 25 54 43 112 19 58 43 125 54 150 19 44 24 58 47 150 7 25 16 54 21
65 46 101 208 770 211 873 0 12 4 25 9 28 5 3 9 16 9 30 0 20 -5 24 -29 24
-17 0 -31 -6 -35 -16z m-9 -86 c-3 -8 -6 -5 -6 6 -1 11 2 17 5 13 3 -3 4 -12
1 -19z m30 -10 c-3 -7 -5 -2 -5 12 0 14 2 19 5 13 2 -7 2 -19 0 -25z m-7 -33
c0 -8 -4 -15 -10 -15 -5 0 -7 7 -4 15 4 8 8 15 10 15 2 0 4 -7 4 -15z m-1635
-985 c3 -6 -1 -7 -9 -4 -18 7 -21 14 -7 14 6 0 13 -4 16 -10z m1485 -319 c0
-5 -7 -12 -16 -15 -22 -9 -24 -8 -24 9 0 8 9 15 20 15 11 0 20 -4 20 -9z
m-200 -31 c0 -11 -4 -20 -9 -20 -5 0 -7 9 -4 20 3 11 7 20 9 20 2 0 4 -9 4
-20z m-4 -66 c5 -27 4 -28 -12 -12 -10 10 -14 23 -10 34 8 21 15 14 22 -22z
m-33 -49 c4 -8 2 -17 -3 -20 -6 -4 -10 3 -10 14 0 25 6 27 13 6z m37 -45 c0
-5 -4 -10 -10 -10 -5 0 -10 5 -10 10 0 6 5 10 10 10 6 0 10 -4 10 -10z m-793
-872 c-3 -7 -5 -2 -5 12 0 14 2 19 5 13 2 -7 2 -19 0 -25z m-3 -33 c3 -8 1
-15 -4 -15 -6 0 -10 7 -10 15 0 8 2 15 4 15 2 0 6 -7 10 -15z m-3714 -228 c12
-4 11 -6 -2 -6 -11 -1 -18 -9 -18 -21 0 -10 -9 -24 -20 -30 -17 -9 -20 -8 -20
10 0 11 7 20 15 20 8 0 14 3 14 8 -4 22 2 46 9 36 4 -6 14 -14 22 -17z m1
-174 c-10 -17 -10 -16 -11 3 0 23 13 41 18 25 2 -6 -1 -18 -7 -28z m-91 -115
c-11 -12 -20 -27 -20 -32 0 -6 -5 -4 -10 4 -5 8 -9 22 -9 30 0 10 3 8 9 -5 7
-16 9 -17 9 -3 1 15 13 25 34 27 4 1 -1 -9 -13 -21z m24 -10 c-10 -13 -20 -25
-21 -27 -2 -2 -3 1 -3 7 0 11 27 42 37 42 3 0 -2 -10 -13 -22z m3748 -10 c-7
-7 -12 -8 -12 -2 0 14 12 26 19 19 2 -3 -1 -11 -7 -17z m-4095 -75 c-9 -9 -19
-14 -22 -11 -3 3 2 13 11 22 9 9 19 14 22 11 3 -3 -2 -13 -11 -22z m303 6 c-7
-11 -14 -18 -17 -15 -3 3 0 12 7 21 18 21 23 19 10 -6z m-50 -61 c0 -4 -4 -8
-9 -8 -6 0 -12 4 -15 8 -3 5 1 9 9 9 8 0 15 -4 15 -9z m-70 -78 c0 -5 -5 -10
-11 -10 -5 0 -7 5 -4 10 3 6 8 10 11 10 2 0 4 -4 4 -10z m-170 -334 c0 -3 -4
-8 -10 -11 -5 -3 -10 -1 -10 4 0 6 5 11 10 11 6 0 10 -2 10 -4z m-43 -58 c-3
-8 -6 -5 -6 6 -1 11 2 17 5 13 3 -3 4 -12 1 -19z m-56 -81 c-10 -9 -11 -8 -5
6 3 10 9 15 12 12 3 -3 0 -11 -7 -18z m-8 -54 c-3 -7 -6 -13 -8 -13 -2 0 -5 6
-8 13 -3 8 1 14 8 14 7 0 11 -6 8 -14z m-963 -107 c0 -3 -4 -8 -10 -11 -5 -3
-10 -1 -10 4 0 6 5 11 10 11 6 0 10 -2 10 -4z m-660 -126 c0 -5 -4 -10 -9 -10
-6 0 -13 5 -16 10 -3 6 1 10 9 10 9 0 16 -4 16 -10z m-20 -20 c0 -5 -4 -10
-10 -10 -5 0 -10 5 -10 10 0 6 5 10 10 10 6 0 10 -4 10 -10z m-45 -98 c-3 -3
-11 0 -18 7 -9 10 -8 11 6 5 10 -3 15 -9 12 -12z m4909 -48 c9 -3 13 -10 10
-16 -3 -5 -12 -4 -22 4 -12 10 -14 10 -8 1 4 -7 3 -13 -3 -13 -13 0 -22 15
-14 24 8 8 17 8 37 0z m-134 -96 c0 -6 -9 -8 -20 -5 -11 3 -20 1 -20 -4 0 -5
-3 -8 -7 -7 -9 1 -33 -7 -78 -28 -26 -12 -27 -14 -8 -14 12 0 25 5 28 10 8 13
25 13 25 0 0 -5 -16 -12 -35 -16 -19 -3 -38 -10 -41 -15 -3 -5 -10 -9 -15 -9
-6 0 -7 5 -4 10 3 6 -2 10 -12 10 -10 0 9 13 42 28 33 15 73 35 90 44 30 16
55 14 55 -4z m-6696 -903 c-4 -8 -8 -15 -10 -15 -2 0 -4 7 -4 15 0 8 4 15 10
15 5 0 7 -7 4 -15z m-4 -219 c0 -3 -4 -8 -10 -11 -5 -3 -10 -1 -10 4 0 6 5 11
10 11 6 0 10 -2 10 -4z m-40 -290 c0 -9 -4 -16 -10 -16 -5 0 -10 6 -10 14 0 8
-3 23 -7 33 -6 17 -6 17 10 1 9 -9 17 -24 17 -32z m-21 -88 c-7 -13 -14 -18
-16 -11 -3 7 2 19 9 27 18 20 22 12 7 -16z m3701 -173 c0 -8 -4 -15 -10 -15
-5 0 -7 7 -4 15 4 8 8 15 10 15 2 0 4 -7 4 -15z m-161 -132 c-13 -15 -12 -15
11 -3 23 12 24 11 9 -5 -11 -11 -24 -15 -39 -10 -20 6 -21 7 -3 21 25 19 38
17 22 -3z m-22 -42 c-6 -39 -32 -54 -40 -23 -4 15 -6 15 -11 -3 -8 -23 -51
-46 -72 -38 -11 4 -12 9 -3 19 6 8 17 14 25 14 7 0 19 9 27 20 9 13 21 18 36
15 18 -3 21 -2 11 10 -9 11 -7 12 9 8 12 -3 19 -12 18 -22z m-997 -651 c0 -5
-5 -10 -11 -10 -5 0 -7 5 -4 10 3 6 8 10 11 10 2 0 4 -4 4 -10z m-16 -16 c25
-10 19 -26 -6 -19 -23 7 -23 7 -3 -9 20 -17 19 -17 -5 -10 -14 4 -31 7 -39 7
-7 0 -3 8 10 18 28 22 24 20 43 13z m-24 -55 c0 -5 -7 -9 -15 -9 -8 0 -15 -6
-15 -13 0 -12 -78 -63 -90 -60 -3 1 -8 -6 -12 -16 -10 -29 -59 -42 -89 -24
-23 14 -23 14 -1 10 12 -3 22 0 22 6 0 20 74 77 82 64 5 -8 8 -7 8 4 0 28 66
62 98 51 6 -2 12 -8 12 -13z m-2505 -1149 c-3 -5 -12 -10 -18 -10 -7 0 -6 4 3
10 19 12 23 12 15 0z m-78 -16 c-3 -3 -12 -4 -19 -1 -8 3 -5 6 6 6 11 1 17 -2
13 -5z m-59 -11 c-10 -2 -28 -2 -40 0 -13 2 -5 4 17 4 22 1 32 -1 23 -4z m-75
-10 c-7 -2 -21 -2 -30 0 -10 3 -4 5 12 5 17 0 24 -2 18 -5z m-70 -10 c-7 -2
-21 -2 -30 0 -10 3 -4 5 12 5 17 0 24 -2 18 -5z m130 0 c-7 -2 -19 -2 -25 0
-7 3 -2 5 12 5 14 0 19 -2 13 -5z m-293 -172 c0 -5 -7 -12 -16 -15 -22 -9 -24
-8 -24 9 0 8 9 15 20 15 11 0 20 -4 20 -9z m-320 -240 c0 -5 -7 -12 -16 -15
-22 -9 -24 -8 -24 9 0 8 9 15 20 15 11 0 20 -4 20 -9z m-560 -400 c0 -5 -7
-12 -16 -15 -22 -9 -24 -8 -24 9 0 8 9 15 20 15 11 0 20 -4 20 -9z"/>
<path d="M10453 8983 c-20 -8 -15 -23 7 -23 11 0 20 7 20 15 0 15 -6 17 -27 8z"/>
<path d="M9253 8343 c-20 -8 -15 -23 7 -23 11 0 20 7 20 15 0 15 -6 17 -27 8z"/>
<path d="M8678 8143 c7 -3 16 -2 19 1 4 3 -2 6 -13 5 -11 0 -14 -3 -6 -6z"/>
<path d="M8696 8107 c3 -10 9 -15 12 -12 3 3 0 11 -7 18 -10 9 -11 8 -5 -6z"/>
<path d="M8780 8105 c0 -8 0 -18 0 -22 0 -5 8 -8 18 -9 16 -1 17 2 8 22 -12
27 -26 31 -26 9z"/>
<path d="M8723 8086 c3 -7 0 -19 -6 -25 -8 -8 -8 -11 1 -11 7 0 12 5 12 10 0
6 7 10 16 10 14 0 15 -2 3 -17 -13 -16 -12 -17 4 -4 17 13 17 15 -2 32 -24 22
-35 24 -28 5z"/>
<path d="M8843 8077 c-12 -20 -10 -46 4 -51 8 -4 13 3 13 18 0 14 5 26 12 28
8 3 6 7 -5 11 -9 3 -20 1 -24 -6z"/>
<path d="M8923 8063 c5 -12 16 -23 23 -23 7 0 14 -6 17 -12 2 -7 7 -10 11 -7
11 11 -19 58 -40 62 -20 3 -21 1 -11 -20z"/>
<path d="M9000 8030 c0 -5 5 -10 10 -10 6 0 10 5 10 10 0 6 -4 10 -10 10 -5 0
-10 -4 -10 -10z"/>
<path d="M8847 7989 c7 -7 15 -10 18 -7 3 3 -2 9 -12 12 -14 6 -15 5 -6 -5z"/>
<path d="M8930 7950 c13 -9 13 -11 0 -20 -8 -5 -10 -10 -5 -10 6 0 17 5 25 10
13 9 13 11 0 20 -8 5 -19 10 -25 10 -5 0 -3 -5 5 -10z"/>
<path d="M9005 7870 c3 -5 8 -10 11 -10 2 0 4 5 4 10 0 6 -5 10 -11 10 -5 0
-7 -4 -4 -10z"/>
<path d="M9024 7852 c-8 -13 -8 -20 1 -29 9 -8 12 -4 12 18 0 16 -1 29 -1 29
-1 0 -6 -8 -12 -18z"/>
<path d="M9106 7753 c-6 -14 -5 -15 5 -6 7 7 10 15 7 18 -3 3 -9 -2 -12 -12z"/>
<path d="M9150 7676 c0 -2 8 -10 18 -17 15 -13 16 -12 3 4 -13 16 -21 21 -21
13z"/>
<path d="M9306 7427 c3 -10 9 -15 12 -12 3 3 0 11 -7 18 -10 9 -11 8 -5 -6z"/>
<path d="M7778 7113 c7 -3 16 -2 19 1 4 3 -2 6 -13 5 -11 0 -14 -3 -6 -6z"/>
<path d="M7426 6952 c-9 -15 -277 -35 -413 -32 -32 1 -53 -3 -53 -9 0 -7 26
-11 66 -11 41 0 63 -4 59 -10 -3 -5 -24 -10 -46 -10 -21 0 -39 -4 -39 -8 0
-18 -53 -32 -120 -32 -67 0 -120 -14 -120 -32 0 -4 -9 -8 -20 -8 -11 0 -20 5
-20 10 0 6 -18 10 -40 10 -22 0 -40 -4 -40 -10 0 -5 18 -10 40 -10 22 0 40 -3
40 -8 0 -4 -18 -18 -40 -32 -22 -14 -40 -28 -40 -32 0 -5 -18 -8 -40 -8 -22 0
-40 -3 -40 -8 0 -4 -18 -18 -40 -32 -22 -14 -40 -28 -40 -32 0 -5 -18 -8 -40
-8 -22 0 -40 -3 -40 -8 0 -4 -18 -18 -40 -32 -22 -14 -40 -28 -40 -32 0 -5
-18 -8 -40 -8 -22 0 -40 -3 -40 -8 0 -4 -18 -18 -40 -32 -22 -14 -40 -28 -40
-32 0 -5 -7 -8 -16 -8 -8 0 -22 -7 -30 -15 -9 -8 -20 -15 -25 -15 -5 0 -9 7
-9 15 0 10 -10 15 -30 15 -24 0 -30 -4 -30 -22 0 -20 1 -21 20 -3 24 22 25 18
4 -30 -14 -35 -16 -36 -34 -20 -12 11 -26 14 -39 10 -21 -6 -29 -25 -11 -25 6
0 1 -9 -11 -21 -11 -11 -23 -18 -27 -15 -3 4 0 12 6 18 15 15 16 32 2 23 -5
-3 -10 1 -10 9 0 10 9 16 23 16 28 1 57 22 57 44 0 13 -10 16 -50 16 -27 0
-50 -4 -50 -10 0 -5 4 -10 9 -10 5 0 6 -30 3 -67 -4 -48 -2 -64 7 -59 6 4 11
1 11 -6 0 -8 11 -14 25 -14 14 0 25 6 25 13 0 7 6 13 13 13 8 0 19 10 24 23
l11 22 7 -27 c8 -32 28 -43 84 -46 21 -2 23 -5 18 -37 -4 -26 -2 -35 9 -35 12
0 12 -4 2 -21 -10 -17 -10 -23 0 -26 6 -3 12 -11 12 -19 0 -8 7 -14 16 -14 14
0 16 -8 10 -47 -3 -26 -10 -49 -15 -52 -4 -4 -11 -18 -15 -33 -3 -16 -11 -28
-16 -28 -6 0 -10 -24 -10 -52 -1 -31 -7 -61 -15 -72 -8 -11 -15 -34 -15 -50 0
-17 -5 -38 -10 -46 -7 -11 -9 -5 -5 20 4 28 1 25 -11 -15 -12 -37 -14 -53 -5
-67 15 -24 14 -38 -4 -38 -8 0 -15 -6 -15 -14 0 -7 -6 -19 -14 -25 -13 -11
-14 -27 -7 -113 0 -10 9 -18 19 -18 13 -1 11 -4 -8 -15 -22 -13 55 -14 655
-12 l680 4 106 30 c139 40 241 90 331 162 121 96 154 134 231 260 105 172 157
338 162 516 2 67 1 87 -4 60 l-8 -40 -3 43 c-2 23 -4 52 -4 65 -1 12 -7 28
-13 35 -7 7 -13 24 -13 36 0 13 -7 29 -15 36 -8 7 -15 19 -15 26 0 8 -4 14 -8
14 -4 0 -15 13 -24 28 -14 23 -15 32 -5 42 8 8 8 11 1 7 -7 -4 -14 -1 -17 7
-3 8 -22 19 -41 26 -20 6 -34 16 -31 21 3 5 -12 11 -34 15 -22 3 -48 14 -58
23 -31 29 -129 41 -302 39 -123 -1 -165 1 -171 11 -5 9 -10 9 -14 3z m-163
-39 c-13 -2 -33 -2 -45 0 -13 2 -3 4 22 4 25 0 35 -2 23 -4z m-113 -23 c12 -8
11 -10 -7 -10 -13 0 -23 5 -23 10 0 13 11 13 30 0z m1047 -452 c-3 -8 -6 -5
-6 6 -1 11 2 17 5 13 3 -3 4 -12 1 -19z m-2130 -23 c-7 -14 -15 -25 -19 -25
-4 0 -2 11 4 25 6 14 15 25 19 25 4 0 2 -11 -4 -25z m-57 -35 c0 -17 -2 -19
-14 -8 -14 13 -12 28 5 28 5 0 9 -9 9 -20z m53 -20 c3 -11 1 -20 -4 -20 -5 0
-9 9 -9 20 0 11 2 20 4 20 2 0 6 -9 9 -20z"/>
<path d="M6683 6892 c0 -8 11 -12 30 -10 42 4 45 24 4 23 -21 0 -34 -5 -34
-13z"/>
<path d="M6845 6890 c-3 -5 3 -10 14 -10 12 0 21 5 21 10 0 6 -6 10 -14 10 -8
0 -18 -4 -21 -10z"/>
<path d="M9471 6844 c0 -11 3 -14 6 -6 3 7 2 16 -1 19 -3 4 -6 -2 -5 -13z"/>
<path d="M6588 6823 c-37 -6 -36 -23 2 -23 20 0 30 5 30 15 0 8 -1 14 -2 14
-2 -1 -15 -4 -30 -6z"/>
<path d="M9472 6775 c0 -16 2 -22 5 -12 2 9 2 23 0 30 -3 6 -5 -1 -5 -18z"/>
<path d="M9502 6770 c0 -14 2 -19 5 -12 2 6 2 18 0 25 -3 6 -5 1 -5 -13z"/>
<path d="M6453 6743 c-20 -8 -15 -23 7 -23 11 0 20 7 20 15 0 15 -6 17 -27 8z"/>
<path d="M9473 6680 c0 -25 2 -35 4 -22 2 12 2 32 0 45 -2 12 -4 2 -4 -23z"/>
<path d="M8202 6644 c-1 -12 -5 -37 -8 -55 -4 -28 -3 -31 6 -16 6 9 9 34 7 55
-2 20 -4 27 -5 16z"/>
<path d="M9472 6610 c0 -14 2 -19 5 -12 2 6 2 18 0 25 -3 6 -5 1 -5 -13z"/>
<path d="M9462 6540 c0 -19 2 -27 5 -17 2 9 2 25 0 35 -3 9 -5 1 -5 -18z"/>
<path d="M5475 6370 c-3 -5 -1 -10 4 -10 6 0 11 5 11 10 0 6 -2 10 -4 10 -3 0
-8 -4 -11 -10z"/>
<path d="M9425 6310 c-4 -23 -5 -44 -2 -46 3 -3 8 13 12 36 4 23 5 44 2 46 -3
3 -8 -13 -12 -36z"/>
<path d="M5548 6313 c29 -4 32 -7 32 -39 0 -19 5 -34 10 -34 6 0 10 15 10 34
0 37 -14 47 -58 44 -23 -1 -22 -2 6 -5z"/>
<path d="M9412 6210 c0 -14 2 -19 5 -12 2 6 2 18 0 25 -3 6 -5 1 -5 -13z"/>
<path d="M5863 6179 c0 -28 2 -30 13 -14 7 9 10 23 7 31 -9 24 -20 15 -20 -17z"/>
<path d="M9411 6103 c-1 -6 -4 -20 -7 -30 -5 -17 -5 -17 6 0 6 10 9 23 6 30
-3 9 -5 9 -5 0z"/>
<path d="M9356 6017 c-9 -30 -16 -59 -16 -64 -1 -4 -9 -26 -20 -48 -24 -49
-24 -53 -5 -71 8 -9 15 -12 15 -7 0 5 -5 14 -12 21 -8 8 -8 15 0 24 12 15 64
189 58 195 -2 3 -11 -20 -20 -50z"/>
<path d="M5770 6019 c0 -5 5 -7 10 -4 6 3 10 8 10 11 0 2 -4 4 -10 4 -5 0 -10
-5 -10 -11z"/>
<path d="M9280 5798 c-7 -18 -13 -41 -12 -51 1 -10 -2 -16 -7 -13 -5 3 -14 -8
-20 -24 -6 -18 -6 -30 0 -30 5 0 9 9 9 21 0 11 4 18 9 15 11 -7 23 22 15 35
-3 5 4 22 15 38 22 31 26 41 13 41 -4 0 -14 -15 -22 -32z"/>
<path d="M9189 5609 c-18 -36 -19 -41 -4 -29 18 15 39 60 31 67 -3 3 -15 -15
-27 -38z"/>
<path d="M9140 5528 c-11 -18 -20 -37 -20 -43 1 -12 30 25 30 38 0 4 4 6 8 3
4 -2 8 4 8 15 0 26 -3 24 -26 -13z"/>
<path d="M5988 5483 c7 -3 16 -2 19 1 4 3 -2 6 -13 5 -11 0 -14 -3 -6 -6z"/>
<path d="M9080 5430 c-7 -13 -27 -43 -46 -67 -19 -25 -34 -49 -34 -55 0 -6 23
21 51 61 28 40 48 75 46 78 -3 2 -11 -5 -17 -17z"/>
<path d="M4560 5190 c0 -5 5 -10 10 -10 6 0 10 5 10 10 0 6 -4 10 -10 10 -5 0
-10 -4 -10 -10z"/>
<path d="M3893 5123 c9 -2 25 -2 35 0 9 3 1 5 -18 5 -19 0 -27 -2 -17 -5z"/>
<path d="M8635 4890 c-3 -5 1 -10 9 -10 9 0 16 5 16 10 0 6 -4 10 -9 10 -6 0
-13 -4 -16 -10z"/>
<path d="M3525 4790 c-3 -5 -1 -10 4 -10 6 0 11 5 11 10 0 6 -2 10 -4 10 -3 0
-8 -4 -11 -10z"/>
<path d="M8420 4760 c-13 -8 -13 -10 2 -10 9 0 20 5 23 10 8 13 -5 13 -25 0z"/>
<path d="M8150 4619 c0 -5 5 -7 10 -4 6 3 10 8 10 11 0 2 -4 4 -10 4 -5 0 -10
-5 -10 -11z"/>
<path d="M7885 4520 c-13 -6 -15 -9 -5 -9 8 0 22 4 30 9 18 12 2 12 -25 0z"/>
<path d="M7745 4490 c27 -12 43 -12 25 0 -8 5 -22 9 -30 9 -10 0 -8 -3 5 -9z"/>
<path d="M7408 4443 c6 -2 18 -2 25 0 6 3 1 5 -13 5 -14 0 -19 -2 -12 -5z"/>
<path d="M7338 4433 c7 -3 16 -2 19 1 4 3 -2 6 -13 5 -11 0 -14 -3 -6 -6z"/>
<path d="M5632 4380 c0 -14 2 -19 5 -12 2 6 2 18 0 25 -3 6 -5 1 -5 -13z"/>
<path d="M5573 4155 c-3 -9 -3 -18 -1 -21 3 -3 8 4 11 16 6 23 -1 27 -10 5z"/>
<path d="M5561 4104 c0 -11 3 -14 6 -6 3 7 2 16 -1 19 -3 4 -6 -2 -5 -13z"/>
<path d="M1851 4054 c0 -11 3 -14 6 -6 3 7 2 16 -1 19 -3 4 -6 -2 -5 -13z"/>
<path d="M1761 4015 c0 -31 2 -36 9 -23 6 10 7 25 1 40 -9 20 -10 18 -10 -17z"/>
<path d="M5522 3960 c0 -14 2 -19 5 -12 2 6 2 18 0 25 -3 6 -5 1 -5 -13z"/>
<path d="M1791 3934 c0 -11 3 -14 6 -6 3 7 2 16 -1 19 -3 4 -6 -2 -5 -13z"/>
<path d="M5512 3910 c0 -14 2 -19 5 -12 2 6 2 18 0 25 -3 6 -5 1 -5 -13z"/>
<path d="M1767 3890 c-3 -11 -1 -20 4 -20 5 0 9 9 9 20 0 11 -2 20 -4 20 -2 0
-6 -9 -9 -20z"/>
<path d="M1755 3840 c-3 -5 -1 -10 4 -10 6 0 11 5 11 10 0 6 -2 10 -4 10 -3 0
-8 -4 -11 -10z"/>
<path d="M5490 3834 c0 -11 -4 -24 -9 -29 -5 -6 -11 -30 -14 -55 -6 -46 -3
-40 23 48 7 23 10 45 7 49 -4 3 -7 -3 -7 -13z"/>
<path d="M5455 3683 c4 -14 2 -23 -4 -23 -6 0 -11 -8 -11 -17 0 -14 3 -14 16
5 11 17 12 26 4 39 -9 16 -10 15 -5 -4z"/>
<path d="M1746 3665 c-3 -9 -6 -24 -5 -33 0 -9 5 -4 10 12 9 32 6 48 -5 21z"/>
<path d="M1013 3623 c-20 -8 -15 -23 7 -23 11 0 20 7 20 15 0 15 -6 17 -27 8z"/>
<path d="M5415 3569 c-3 -13 -15 -60 -26 -104 -58 -230 -69 -278 -65 -283 3
-2 8 9 11 24 4 16 16 56 27 89 11 33 23 83 28 110 4 28 15 79 24 114 10 35 15
65 12 68 -3 3 -8 -5 -11 -18z"/>
<path d="M1710 3570 c0 -5 5 -10 10 -10 6 0 10 5 10 10 0 6 -4 10 -10 10 -5 0
-10 -4 -10 -10z"/>
<path d="M2534 3494 c-18 -14 -18 -15 4 -4 12 6 22 13 22 15 0 8 -5 6 -26 -11z"/>
<path d="M2455 3440 c-3 -6 1 -7 9 -4 18 7 21 14 7 14 -6 0 -13 -4 -16 -10z"/>
<path d="M1683 3425 c-3 -9 -3 -18 -1 -21 3 -3 8 4 11 16 6 23 -1 27 -10 5z"/>
<path d="M2380 3389 c-22 -18 -22 -19 -3 -10 12 6 25 16 28 21 9 15 3 12 -25
-11z"/>
<path d="M533 3303 c-20 -8 -15 -23 7 -23 11 0 20 7 20 15 0 15 -6 17 -27 8z"/>
<path d="M2145 3231 c-3 -5 -2 -12 3 -15 5 -3 9 1 9 9 0 17 -3 19 -12 6z"/>
<path d="M373 3223 c-20 -8 -15 -23 7 -23 11 0 20 7 20 15 0 15 -6 17 -27 8z"/>
<path d="M2022 3148 c-7 -7 -12 -16 -12 -21 0 -5 7 -1 16 8 9 9 14 18 12 20
-2 3 -10 -1 -16 -7z"/>
<path d="M1724 2944 c-18 -14 -18 -15 4 -4 12 6 22 13 22 15 0 8 -5 6 -26 -11z"/>
<path d="M1656 2832 c-10 -16 1 -32 22 -32 11 0 13 3 6 8 -6 4 -13 14 -16 22
-3 10 -6 11 -12 2z"/>
<path d="M4825 2680 c-10 -11 -15 -20 -11 -20 11 0 39 30 34 36 -3 2 -13 -5
-23 -16z"/>
<path d="M3782 2000 c-12 -12 -22 -17 -22 -13 0 4 -6 1 -13 -8 -7 -9 -26 -23
-44 -32 -17 -9 -34 -21 -38 -27 -3 -5 13 2 37 15 23 13 45 22 50 19 4 -3 5 2
2 11 -4 10 -2 14 8 10 8 -3 23 3 33 15 25 27 14 35 -13 10z"/>
<path d="M3608 1883 c-16 -8 -28 -18 -28 -22 0 -5 -13 -14 -29 -21 -30 -12
-68 -47 -60 -54 7 -7 59 6 59 15 0 5 -7 5 -17 2 -11 -4 -14 -3 -9 5 4 7 14 12
22 12 8 0 14 5 14 11 0 6 7 8 16 5 8 -3 12 -2 9 4 -3 6 10 19 29 31 53 31 47
41 -6 12z"/>
<path d="M3625 1860 c-3 -5 -2 -10 4 -10 5 0 13 5 16 10 3 6 2 10 -4 10 -5 0
-13 -4 -16 -10z"/>
<path d="M1010 926 c0 -2 9 -6 20 -9 11 -3 18 -1 14 4 -5 9 -34 13 -34 5z"/>
<path d="M930 910 c-11 -7 -6 -10 22 -10 20 0 40 5 43 10 8 13 -45 13 -65 0z"/>
<path d="M968 883 c6 -2 18 -2 25 0 6 3 1 5 -13 5 -14 0 -19 -2 -12 -5z"/>
<path d="M213 343 c-20 -8 -15 -23 7 -23 11 0 20 7 20 15 0 15 -6 17 -27 8z"/>
</g>
</svg>
